<svg id="Track" xmlns="http://www.w3.org/2000/svg" width="725" height="610" viewBox="0 0 725 610">
  <g id="_1792892195936">
    <path id="Caminho_399" data-name="Caminho 399" d="M158,335V583a27,27,0,0,0,54,0V335a27,27,0,0,0-54,0Z" fill="#c2c2c2"/>
    <path id="Caminho_400" data-name="Caminho 400" d="M74,610h59V315c0-1,1-3,1-4C134,184,236,80,362,80c127,0,229,104,229,231a12.683,12.683,0,0,0,1,6V610h59c41,0,74-34,74-77V379c0-35-23-64-54-73C668,137,531,0,362,0,194,0,56,137,53,306c-30,9-53,38-53,73V533C0,575,33,610,74,610Z" fill="#c2c2c2"/>
    <path id="Caminho_401" data-name="Caminho 401" d="M513,335V583a27,27,0,0,0,54,0V335a27,27,0,0,0-54,0Z" fill="#c2c2c2"/>
  </g>
</svg>
