<?xml version="1.0" encoding="UTF-8"?>
<!DOCTYPE svg PUBLIC "-//W3C//DTD SVG 1.1//EN" "http://www.w3.org/Graphics/SVG/1.1/DTD/svg11.dtd">
<!-- Creator: CorelDRAW X8 -->
<svg xmlns="http://www.w3.org/2000/svg" xml:space="preserve" width="725px" height="610px" version="1.1" style="shape-rendering:geometricPrecision; text-rendering:geometricPrecision; image-rendering:optimizeQuality; fill-rule:evenodd; clip-rule:evenodd"
viewBox="0 0 725 610"
 xmlns:xlink="http://www.w3.org/1999/xlink">
 <defs>
  <style type="text/css">
   <![CDATA[
    .fil0 {fill:#4B4B4B;fill-rule:nonzero}
   ]]>
  </style>
 </defs>
 <g id="Camada_x0020_1">
  <metadata id="CorelCorpID_0Corel-Layer"/>
  <g id="_1792892195936">
   <path class="fil0" d="M158 335l0 248c0,15 12,27 27,27 15,0 27,-12 27,-27l0 -248c0,-15 -12,-27 -27,-27 -15,0 -27,12 -27,27z"/>
   <path class="fil0" d="M74 610l59 0 0 -295c0,-1 1,-3 1,-4 0,-127 102,-231 228,-231 127,0 229,104 229,231 0,2 0,4 1,6l0 293 59 0c41,0 74,-34 74,-77l0 -154c0,-35 -23,-64 -54,-73 -3,-169 -140,-306 -309,-306 -168,0 -306,137 -309,306 -30,9 -53,38 -53,73l0 154c0,42 33,77 74,77z"/>
   <path class="fil0" d="M513 335l0 248c0,15 12,27 27,27 15,0 27,-12 27,-27l0 -248c0,-15 -12,-27 -27,-27 -15,0 -27,12 -27,27z"/>
  </g>
 </g>
</svg>
