<?xml version="1.0" encoding="UTF-8"?>
<!DOCTYPE svg PUBLIC "-//W3C//DTD SVG 1.1//EN" "http://www.w3.org/Graphics/SVG/1.1/DTD/svg11.dtd">
<!-- Creator: CorelDRAW X8 -->
<svg xmlns="http://www.w3.org/2000/svg" xml:space="preserve" width="600px" height="821px" version="1.1" style="shape-rendering:geometricPrecision; text-rendering:geometricPrecision; image-rendering:optimizeQuality; fill-rule:evenodd; clip-rule:evenodd"
viewBox="0 0 219 300"
 xmlns:xlink="http://www.w3.org/1999/xlink">
 <defs>
  <style type="text/css">
   <![CDATA[
    .fil1 {fill:gray}
    .fil0 {fill:white}
    .fil2 {fill:#0092BC;fill-rule:nonzero}
   ]]>
  </style>
 </defs>
 <g id="Camada_x0020_1">
  <metadata id="CorelCorpID_0Corel-Layer"/>
  <g>
   <path class="fil0" d="M16 0l187 0c9,0 16,7 16,16l0 268c0,9 -7,16 -16,16l-187 0c-9,0 -16,-7 -16,-16l0 -268c0,-9 7,-16 16,-16z"/>
   <path id="1" class="fil1" d="M16 0l187 0c9,0 16,7 16,16l0 268c0,9 -7,16 -16,16l-187 0c-9,0 -16,-7 -16,-16l0 -268c0,-9 7,-16 16,-16zm187 4l-187 0c-3,0 -6,1 -9,3 -2,3 -3,6 -3,9l0 268c0,3 1,6 3,9 3,2 6,3 9,3l187 0c3,0 7,-1 9,-3 2,-3 3,-6 3,-9l0 -268c0,-3 -1,-6 -3,-9 -2,-2 -6,-3 -9,-3z"/>
  </g>
  <path class="fil2" d="M16 7l187 0c3,0 5,1 7,3 1,2 2,4 2,6l0 268c0,2 -1,4 -2,6 -2,1 -4,2 -7,2l-187 0c-2,0 -5,-1 -7,-2 -1,-2 -2,-4 -2,-6l0 -268c0,-2 1,-4 2,-6 2,-2 5,-3 7,-3zm187 3l-187 0c-1,0 -3,1 -4,2 -1,1 -1,2 -1,4l0 268c0,1 0,3 1,4 1,1 3,2 4,2l187 0c1,0 3,-1 4,-2 1,-1 2,-3 2,-4l0 -268c0,-2 -1,-3 -2,-4 -1,-1 -3,-2 -4,-2z"/>
 </g>
</svg>
